<svg aria-hidden="true" style="position:absolute;width:0;height:0" xmlns="http://www.w3.org/2000/svg" overflow="hidden"><defs><symbol id="icon-prev" viewBox="0 0 54 32"><path fill="var(--color1, #ff6b09)" d="M52 14a2 2 0 110 4v-4zM.586 17.414C.224 17.052 0 16.552 0 16s.224-1.052.586-1.414L13.314 1.858a2 2 0 012.825 2.829l.001-.001L4.828 16l11.314 11.314a2 2 0 11-2.827 2.829l-.001-.001L.586 17.414zM52 18H2v-4h50v4z"/></symbol><symbol id="icon-next" viewBox="0 0 54 32"><path fill="var(--color1, #ff6b09)" d="M2 14a2 2 0 100 4v-4zm51.414 3.414c.362-.362.586-.862.586-1.414s-.224-1.052-.586-1.414L40.686 1.858a2 2 0 10-2.829 2.827l.001.001L49.172 16 37.858 27.314a2 2 0 002.829 2.827l-.001.001 12.728-12.728zM2 18h50v-4H2v4z"/></symbol><symbol id="icon-vk" viewBox="0 0 32 32"><path fill="var(--color2, #436eab)" d="M27.541 18.46c1.06 1.037 2.181 2.012 3.133 3.152.421.508.819 1.03 1.123 1.619.432.836.042 1.757-.709 1.807l-4.661-.002c-1.202.099-2.161-.384-2.969-1.206-.645-.658-1.243-1.358-1.863-2.037a4.456 4.456 0 00-.824-.736l-.015-.01c-.637-.413-1.189-.287-1.553.377-.37.676-.454 1.423-.491 2.176-.05 1.098-.382 1.387-1.485 1.436-2.356.112-4.593-.245-6.67-1.434-1.833-1.049-3.253-2.528-4.489-4.203C3.661 16.137 1.817 12.554.161 8.87c-.373-.831-.1-1.276.815-1.292 1.521-.03 3.042-.028 4.564-.002.619.009 1.027.363 1.266.947.822 2.023 1.829 3.948 3.093 5.732.336.475.679.949 1.168 1.284.541.37.953.247 1.206-.354.162-.382.233-.794.269-1.202.121-1.408.137-2.812-.075-4.213-.13-.876-.623-1.442-1.495-1.609-.446-.084-.38-.25-.164-.505.374-.437.727-.711 1.429-.711h5.269c.829.164 1.013.537 1.127 1.371l.004 5.853c-.01.323.161 1.282.743 1.495.465.153.772-.22 1.052-.515 1.262-1.339 2.162-2.922 2.965-4.56.357-.72.665-1.469.962-2.215.221-.555.565-.828 1.191-.816l5.07.004c.151 0 .303.002.448.028.855.145 1.089.512.826 1.347-.416 1.309-1.225 2.4-2.016 3.495-.846 1.17-1.749 2.301-2.589 3.477-.77 1.075-.709 1.617.247 2.55z"/></symbol></defs></svg>